<?xml version="1.0" encoding="UTF-8"?><svg id="Layer_2" xmlns="http://www.w3.org/2000/svg" viewBox="0 0 250.44 53.71"><defs><style>.cls-1{fill:#fff;}.cls-2{fill:#e1e8f6;}.cls-3{fill:#7da7d9;}.cls-4{fill:#adcdec;}.cls-5{fill:#5b91cc;}.cls-6{fill:#c7d6ee;}</style></defs><g id="Layer_1-2"><polygon class="cls-5" points="0 37.88 12.64 25.24 0 12.61 0 37.88"/><path class="cls-1" d="M61.35,17.64h17.07v-5.06h-17.07c-3.3,0-6.1,2.11-7.15,5.06-.28,.79-.44,1.64-.44,2.53s.16,1.74,.44,2.53c1.04,2.94,3.84,5.06,7.15,5.06h10.12c1.39,0,2.53,1.13,2.53,2.53s-1.13,2.53-2.53,2.53h-17.07v5.06h17.07c3.3,0,6.1-2.11,7.15-5.06,.28-.79,.44-1.64,.44-2.53s-.16-1.74-.44-2.53c-1.04-2.94-3.84-5.06-7.15-5.06h-10.12c-1.39,0-2.53-1.13-2.53-2.53s1.13-2.53,2.53-2.53"/><polygon class="cls-1" points="107.02 12.58 81.73 12.58 81.73 17.64 91.85 17.64 91.85 37.87 96.91 37.87 96.91 17.64 107.02 17.64 107.02 12.58"/><polygon class="cls-1" points="174.27 32.82 174.27 12.58 169.21 12.58 169.21 37.87 194.5 37.87 194.5 32.82 174.27 32.82"/><polygon class="cls-1" points="222.47 27.76 217.41 27.76 217.41 12.58 212.35 12.58 212.35 27.76 202.24 27.76 202.24 12.58 197.18 12.58 197.18 32.82 212.35 32.82 212.35 37.87 217.41 37.87 217.41 32.82 222.47 32.82 222.47 27.76"/><path class="cls-1" d="M245.38,12.58v12.65c0,4.18-3.4,7.58-7.59,7.58s-7.58-3.4-7.59-7.58V12.58h-5.06v12.65c0,4.13,1.99,7.79,5.06,10.1,2.12,1.59,4.74,2.55,7.59,2.55s5.47-.95,7.59-2.55c3.07-2.31,5.06-5.97,5.06-10.1V12.58h-5.06Z"/><polygon class="cls-1" points="115.95 17.64 136.18 17.64 136.18 12.58 110.89 12.58 110.89 37.87 136.18 37.87 136.18 32.82 115.95 32.82 115.95 17.64"/><rect class="cls-1" x="121.01" y="22.7" width="15.17" height="5.06"/><polygon class="cls-1" points="145.11 17.64 165.34 17.64 165.34 12.58 140.05 12.58 140.05 37.87 165.34 37.87 165.34 32.82 145.11 32.82 145.11 17.64"/><rect class="cls-1" x="150.17" y="22.7" width="15.17" height="5.06"/><polygon class="cls-1" points="46.07 33.38 46.07 33.38 42.69 30.01 46.07 33.38"/><polygon class="cls-1" points="37.93 25.24 38.2 25.51 38.2 25.51 35.32 22.63 37.93 25.24"/><polygon class="cls-1" points="32.15 19.46 32.15 19.46 12.69 0 25.28 12.59 32.15 19.46"/><polygon class="cls-4" points="0 37.88 0 50.58 12.59 50.58 25.28 37.89 12.64 25.24 0 37.88"/><path class="cls-4" d="M12.69,0l19.46,19.46c1.12-1.12,2.67-1.82,4.39-1.82h7.86c3.41,0,6.18,2.77,6.18,6.18V0H12.69Z"/><path class="cls-4" d="M46.08,25.51v-1.69c0-.93-.75-1.69-1.69-1.69h-7.88c-.47,0-.89,.19-1.19,.49l2.88,2.88h7.88Z"/><path class="cls-1" d="M30.33,31.67v-7.82c0-1.71,.7-3.26,1.82-4.39l-6.87-6.87-12.65,12.65h0l12.65,12.65,5.16-5.16c-.06-.35-.11-.7-.11-1.06"/><path class="cls-1" d="M12.64,25.24l12.65,12.65-12.65-12.65Z"/><path class="cls-1" d="M35.32,22.63c-.31,.31-.49,.73-.49,1.19h0v1.69h3.37l-2.88-2.88Z"/><path class="cls-6" d="M36.53,37.88c-3.06,0-5.59-2.23-6.1-5.15l-5.16,5.15h11.25Z"/><path class="cls-6" d="M34.83,30.01v1.69c0,.93,.76,1.69,1.69,1.69h9.55l-3.37-3.37h-7.87Z"/><polygon class="cls-2" points="12.58 50.59 50.58 50.59 50.58 37.89 25.28 37.89 12.58 50.59"/><polygon class="cls-3" points="25.28 12.59 12.69 0 0 0 0 12.61 12.64 25.24 25.28 12.59"/><path class="cls-1" d="M12.64,25.24l12.65-12.65-12.65,12.65Z"/><polygon class="cls-4" points="42.7 30.01 50.58 37.89 50.58 30.01 42.7 30.01"/><polygon class="cls-1" points="108.16 46.18 108.16 52.15 111.43 52.15 111.43 52.71 107.53 52.71 107.53 46.18 108.16 46.18"/><path class="cls-1" d="M112.34,46.21h.67v.69h-.67v-.69Zm.03,1.62h.61v4.88h-.61v-4.88Z"/><path class="cls-1" d="M116.56,47.74c.56,0,.99,.15,1.3,.46,.31,.3,.46,.71,.46,1.23v3.29h-.62v-3.13c0-.17-.02-.34-.06-.49-.04-.15-.1-.29-.19-.41-.09-.12-.22-.21-.38-.28-.16-.07-.36-.1-.6-.1-.21,0-.39,.04-.57,.11-.17,.08-.32,.17-.44,.29-.12,.12-.22,.25-.28,.4-.07,.14-.1,.29-.1,.43v3.17h-.62v-4.88h.61v.68c.06-.09,.13-.18,.22-.28,.09-.09,.2-.18,.33-.25,.13-.07,.27-.13,.43-.18,.16-.05,.33-.07,.53-.07"/><path class="cls-1" d="M123.34,52.23c-.19,.14-.43,.27-.72,.38-.29,.11-.64,.17-1.05,.17-.65,0-1.16-.2-1.52-.59-.36-.39-.54-.94-.54-1.65v-.61c0-.69,.18-1.23,.53-1.62,.35-.39,.84-.58,1.45-.58s1.13,.2,1.46,.59c.33,.4,.5,.94,.5,1.63v.51h-3.33v.08c0,.54,.13,.96,.39,1.25,.26,.29,.62,.44,1.07,.44,.33,0,.61-.05,.86-.14,.25-.1,.46-.21,.63-.33l.27,.47Zm-.51-2.28v-.08c0-.51-.12-.91-.35-1.18-.24-.27-.57-.41-1-.41s-.77,.14-1.01,.43c-.24,.29-.36,.67-.36,1.15v.08h2.72Z"/><path class="cls-1" d="M127.91,47.93c-.04-.08-.07-.15-.1-.2-.03-.06-.06-.12-.08-.18-.02-.06-.05-.13-.07-.2-.02-.07-.05-.15-.07-.25v5.61h-.62v-6.53h.78l2.21,4.78,2.22-4.78h.75v6.53h-.62v-5.61c-.02,.1-.04,.18-.06,.25-.02,.07-.04,.13-.07,.2-.02,.06-.05,.12-.08,.18-.03,.06-.06,.12-.1,.2l-1.75,3.69h-.6l-1.73-3.69Z"/><path class="cls-1" d="M135.71,52.78c-.46,0-.84-.12-1.13-.37-.29-.25-.43-.59-.43-1.02v-.2c0-.4,.14-.72,.43-.97,.29-.25,.72-.37,1.29-.37h1.38v-.45c0-.36-.1-.63-.29-.82-.2-.19-.48-.29-.86-.29-.27,0-.52,.05-.76,.14-.24,.09-.47,.21-.68,.36l-.3-.47c.23-.16,.48-.29,.76-.41,.28-.11,.61-.17,.98-.17,.55,0,.98,.14,1.29,.41,.31,.27,.47,.65,.47,1.15v3.41h-.6v-.6h0c-.05,.08-.12,.16-.21,.24-.09,.08-.2,.15-.33,.22-.28,.14-.61,.21-.99,.21m1.53-2.42h-1.37c-.39,0-.68,.08-.85,.24-.17,.16-.26,.36-.26,.61v.15c0,.16,.03,.29,.09,.4,.06,.11,.14,.2,.24,.28,.1,.07,.21,.13,.33,.16,.12,.03,.25,.05,.38,.05,.19,0,.37-.03,.52-.07,.16-.05,.31-.12,.45-.21,.13-.08,.24-.19,.33-.31,.09-.12,.13-.28,.13-.47v-.82Z"/><path class="cls-1" d="M141.73,48.46c-.17-.07-.37-.1-.59-.1-.2,0-.38,.04-.54,.12-.16,.08-.3,.19-.42,.33-.12,.14-.2,.3-.26,.5-.06,.19-.09,.4-.09,.63v2.77h-.62v-4.88h.61v.86c.05-.12,.12-.23,.2-.34,.08-.12,.18-.22,.3-.31,.12-.09,.25-.16,.4-.22,.15-.05,.32-.08,.5-.08,.14,0,.26,0,.38,.02,.11,.01,.22,.04,.32,.08l-.19,.62Z"/><polygon class="cls-1" points="144.6 49.7 146.72 52.71 145.97 52.71 144.16 50.11 143.37 50.87 143.37 52.71 142.76 52.71 142.76 45.86 143.37 45.86 143.37 50.14 145.73 47.83 146.55 47.83 144.6 49.7"/><path class="cls-1" d="M151.13,52.23c-.19,.14-.43,.27-.72,.38-.29,.11-.64,.17-1.05,.17-.65,0-1.16-.2-1.52-.59-.36-.39-.54-.94-.54-1.65v-.61c0-.69,.18-1.23,.53-1.62,.35-.39,.84-.58,1.45-.58s1.13,.2,1.46,.59c.33,.4,.5,.94,.5,1.63v.51h-3.33v.08c0,.54,.13,.96,.39,1.25,.26,.29,.62,.44,1.07,.44,.33,0,.61-.05,.86-.14,.25-.1,.46-.21,.63-.33l.27,.47Zm-.51-2.28v-.08c0-.51-.12-.91-.35-1.18-.24-.27-.57-.41-1-.41s-.77,.14-1.01,.43c-.24,.29-.36,.67-.36,1.15v.08h2.72Z"/><path class="cls-1" d="M152.84,48.35h-.83v-.53h.83v-1.26h.62v1.26h1.35v.53h-1.35v2.97c0,.33,.05,.56,.16,.7,.11,.13,.28,.2,.53,.2s.47-.03,.69-.09l.09,.51c-.1,.04-.23,.06-.39,.09-.16,.02-.31,.03-.44,.03-.21,0-.4-.02-.56-.07-.16-.05-.29-.13-.39-.24-.1-.11-.18-.25-.23-.43-.05-.18-.08-.4-.08-.67v-3Z"/><path class="cls-1" d="M162.94,52.54h-7.61v-.55h7.61v.55Zm-6.54-4.62c0-.29,.07-.57,.22-.81,.15-.25,.34-.45,.59-.62,.25-.17,.54-.3,.87-.39,.33-.09,.69-.14,1.06-.14s.73,.05,1.06,.14c.33,.09,.62,.23,.87,.39,.25,.17,.44,.38,.59,.62,.14,.24,.22,.52,.22,.81v.44c0,.3-.07,.57-.22,.82-.15,.24-.34,.45-.59,.62-.25,.17-.54,.3-.87,.39-.33,.09-.69,.14-1.06,.14s-.73-.05-1.06-.14c-.33-.09-.62-.22-.87-.39-.25-.17-.44-.37-.59-.62-.14-.24-.22-.51-.22-.82v-.44Zm2.73-1.38c-.3,0-.57,.04-.83,.1-.26,.07-.48,.17-.67,.29-.19,.12-.33,.27-.44,.44-.11,.17-.16,.36-.16,.57v.39c0,.21,.05,.39,.16,.57,.11,.17,.26,.32,.44,.44,.19,.12,.41,.22,.67,.29,.26,.07,.53,.1,.83,.1s.57-.03,.82-.1c.25-.07,.48-.16,.67-.29,.19-.12,.34-.27,.45-.44,.11-.17,.16-.36,.16-.57v-.39c0-.2-.05-.39-.16-.57-.11-.17-.26-.32-.45-.44-.19-.12-.41-.22-.67-.29-.25-.07-.53-.1-.82-.1"/><polygon class="cls-1" points="169.58 46.08 169.58 48.53 164.87 48.53 164.87 49.87 169.77 49.87 169.77 50.43 167.25 50.43 167.25 51.98 170.73 51.98 170.73 52.54 163.12 52.54 163.12 51.98 166.61 51.98 166.61 50.43 164.25 50.43 164.25 47.99 168.96 47.99 168.96 46.63 164.22 46.63 164.22 46.08 169.58 46.08"/><path class="cls-1" d="M176.65,51.98v-1.7h.65v1.7h3.48v.55h-7.61v-.55h3.48Zm.33-3.35c-.04,.08-.13,.19-.28,.32-.15,.13-.39,.3-.72,.5-.14,.08-.29,.17-.45,.27-.16,.09-.33,.19-.5,.29-.17,.1-.34,.19-.52,.28-.17,.09-.34,.18-.5,.25l-.32-.5c.39-.19,.75-.37,1.09-.56,.34-.18,.62-.35,.83-.48,.22-.15,.4-.27,.54-.39,.13-.12,.24-.23,.31-.34,.07-.12,.12-.24,.14-.36,.02-.13,.04-.27,.04-.44v-.24h-2.56v-.55h2.56v-1.17h.64v1.17h2.58v.55h-2.58v.24c0,.17,.01,.32,.04,.44,.02,.13,.07,.25,.14,.37,.07,.12,.18,.23,.31,.35,.13,.12,.31,.24,.54,.38,.21,.14,.48,.3,.82,.48,.33,.18,.7,.37,1.08,.55l-.31,.48c-.16-.08-.32-.16-.49-.25-.17-.09-.34-.18-.51-.27-.17-.09-.33-.19-.5-.28-.16-.09-.31-.18-.44-.27-.31-.2-.55-.36-.7-.49-.15-.13-.25-.24-.29-.32"/><path class="cls-1" d="M184.48,46.21v.58h-2.48v4.08h.38c.25,0,.48,0,.7,0,.22,0,.43-.02,.63-.03,.21-.01,.41-.03,.61-.05,.2-.02,.4-.05,.61-.09l.07,.57c-.44,.07-.86,.12-1.26,.15-.41,.03-.84,.04-1.3,.04h-1.08v-5.24h3.12Zm1.73,2.19h1.2v-2.98h.63v8.28h-.63v-4.73h-1.2v4.32h-.63v-7.7h.63v2.81Z"/><path class="cls-1" d="M191.54,46.35h2.07v.55h-4.76v-.55h2.06v-1.04h.63v1.04Zm-.32,3.79c-.32,0-.6-.04-.83-.11-.23-.08-.43-.17-.59-.29-.16-.12-.27-.26-.35-.41-.08-.15-.12-.31-.12-.47v-.27c0-.16,.04-.31,.12-.47,.08-.15,.2-.29,.35-.41,.16-.12,.35-.22,.59-.29,.24-.08,.51-.11,.83-.11s.6,.04,.83,.11c.24,.08,.43,.17,.59,.29,.16,.12,.27,.26,.35,.41,.08,.15,.12,.31,.12,.47v.27c0,.16-.04,.31-.12,.47-.08,.15-.2,.29-.35,.41-.16,.12-.35,.22-.59,.29-.23,.08-.51,.11-.83,.11m0-2.31c-.22,0-.41,.02-.57,.07-.16,.05-.29,.11-.4,.19-.11,.08-.18,.16-.23,.25-.05,.09-.08,.18-.08,.28v.2c0,.09,.03,.18,.08,.28,.05,.09,.13,.18,.23,.25,.11,.08,.24,.14,.4,.19,.16,.05,.35,.07,.57,.07s.41-.02,.57-.07c.16-.05,.29-.11,.4-.19,.11-.08,.18-.16,.24-.25,.05-.09,.08-.19,.08-.28v-.2c0-.09-.03-.18-.08-.28-.05-.09-.13-.18-.24-.25-.11-.08-.24-.14-.4-.19-.16-.05-.35-.07-.57-.07m4.04,2.74v3.13h-4.96v-3.13h.62v.97h3.71v-.97h.62Zm-.62,1.53h-3.71v1.03h3.71v-1.03Zm.62-4.62h1.27v.56h-1.27v2.04h-.63v-4.66h.63v2.06Z"/><path class="cls-1" d="M197.9,50.85h1.19c.43,0,.88-.02,1.33-.05,.46-.03,.93-.09,1.43-.18l.08,.57c-.49,.08-.99,.15-1.49,.18-.51,.04-.98,.05-1.41,.05h-1.76v-5.33h.64v4.75Zm5.49,2.85h-.64v-8.28h.64v8.28Z"/><path class="cls-1" d="M204.79,46.18h3.77v.58h-3.12v4.16h1.07c.46,0,.92-.02,1.37-.05,.45-.03,.93-.09,1.44-.18l.08,.57c-.48,.08-.99,.14-1.51,.18-.52,.04-1.04,.05-1.55,.05h-1.55v-5.32Zm5.96,2.32h1.38v.57h-1.38v4.64h-.64v-8.28h.64v3.07Z"/><path class="cls-1" d="M94.62,46.07c.4,0,.77,.07,1.08,.2,.31,.14,.58,.33,.8,.58,.22,.25,.38,.56,.5,.92,.12,.36,.17,.76,.17,1.21v.9c0,.45-.06,.85-.17,1.21-.11,.36-.28,.67-.5,.92-.22,.25-.48,.45-.8,.58-.31,.14-.67,.2-1.08,.2s-.77-.07-1.08-.2c-.31-.14-.58-.33-.8-.58-.22-.25-.38-.56-.5-.92-.12-.36-.17-.76-.17-1.21v-.9c0-.45,.06-.85,.17-1.21,.11-.36,.28-.67,.49-.92,.22-.25,.49-.45,.8-.58,.32-.13,.68-.2,1.08-.2m0,6.17c.59,0,1.05-.2,1.39-.61,.34-.41,.51-1.01,.51-1.79v-.79c0-.79-.17-1.38-.51-1.79-.34-.41-.81-.61-1.39-.61s-1.05,.2-1.39,.61c-.34,.41-.51,1.01-.51,1.79v.79c0,.79,.17,1.38,.51,1.79,.34,.41,.81,.61,1.39,.61"/><path class="cls-1" d="M100.59,47.73c.56,0,1,.15,1.3,.46,.31,.3,.46,.71,.46,1.23v3.29h-.62v-3.14c0-.17-.02-.34-.06-.49-.04-.15-.1-.29-.19-.41-.09-.12-.22-.21-.38-.28-.16-.07-.36-.1-.6-.1-.21,0-.4,.04-.57,.11-.17,.08-.32,.17-.44,.29-.12,.12-.22,.25-.29,.4-.07,.14-.1,.29-.1,.43v3.17h-.62v-4.89h.61v.68c.05-.09,.13-.18,.22-.28,.09-.09,.2-.18,.33-.25,.13-.07,.27-.13,.43-.18,.16-.05,.33-.07,.53-.07"/><rect class="cls-1" x="103.5" y="49.15" width="2.83" height=".58"/></g></svg>